<svg width="257" height="147" viewBox="0 0 257 147" fill="none" xmlns="http://www.w3.org/2000/svg">
<path d="M13.0398 130.499H9.78696L4.79362 119.681V130.499H1.05576V113.128H4.96483L11.3848 127.981L17.491 113.128H21.3715V130.499H17.6051V119.681L13.0398 130.499Z" fill="#83B14A"/>
<path d="M49.9334 115.389H41.5731V120.139H48.2214V122.371H41.5731V128.238H50.2758V130.47H37.8067V113.099H49.9334V115.389Z" fill="#83B14A"/>
<path d="M71.3049 113.128C73.2737 113.128 74.9286 113.357 76.2982 113.815C77.6678 114.273 78.7806 114.874 79.6366 115.646C80.4926 116.448 81.1204 117.335 81.5198 118.336C81.8908 119.367 82.0905 120.454 82.0905 121.599C82.0905 122.4 82.0049 123.173 81.8622 123.917C81.691 124.661 81.4342 125.348 81.0633 126.035C80.6924 126.693 80.2358 127.294 79.6652 127.838C79.0945 128.381 78.4097 128.868 77.5822 129.268C76.7833 129.669 75.8417 129.984 74.7574 130.184C73.6732 130.413 72.4748 130.528 71.1052 130.528H65.8835V113.156H71.3049V113.128ZM69.707 115.36V128.238H70.8484C71.9041 128.238 72.8742 128.124 73.7873 127.809C74.6718 127.551 75.4422 127.122 76.0985 126.578C76.7548 126.006 77.2684 125.319 77.6108 124.489C78.0102 123.659 78.1814 122.658 78.1814 121.542C78.1814 120.74 78.0388 119.996 77.782 119.252C77.5252 118.508 77.1257 117.85 76.5836 117.277C76.0129 116.705 75.2996 116.247 74.3865 115.904C73.502 115.532 72.3892 115.36 71.0766 115.36H69.707Z" fill="#83B14A"/>
<path d="M110.424 115.389H102.064V120.139H108.712V122.371H102.064V128.238H110.767V130.47H98.326V113.099H110.424V115.389Z" fill="#83B14A"/>
<path d="M139.385 130.499H126.403V113.128H130.169V128.238H139.385V130.499Z" fill="#83B14A"/>
<path d="M167.32 130.499H154.337V113.128H158.103V128.238H167.32V130.499Z" fill="#83B14A"/>
<path d="M181.33 110.781L186.009 106.03L188.606 108.32L182.842 111.954L181.33 110.781ZM182.271 130.499V113.128H186.038V130.499H182.271Z" fill="#83B14A"/>
<path d="M206.011 118.079V130.499H202.273V113.128H205.84L214.913 125.605V113.128H218.68L218.737 130.499H215.142L206.011 118.079Z" fill="#83B14A"/>
<path d="M5.59254 145.008C5.33574 145.352 5.02187 145.638 4.65094 145.867C4.28 146.096 3.7664 146.21 3.11014 146.21C2.14 146.21 1.39813 145.838 0.856001 145.123C0.285334 144.379 0 143.406 0 142.232C0 141.145 0.285334 140.229 0.827468 139.456C1.3696 138.684 2.14 138.312 3.19574 138.312C3.62374 138.312 4.0232 138.369 4.33707 138.483C4.67947 138.598 4.99334 138.856 5.30721 139.17L4.7936 139.685C4.56534 139.457 4.30854 139.285 4.05174 139.17C3.7664 139.056 3.48107 138.999 3.1672 138.999C2.45387 138.999 1.8832 139.285 1.48373 139.914C1.08427 140.544 0.884534 141.259 0.884534 142.089C0.884534 143.177 1.1128 144.007 1.5408 144.608C1.99734 145.209 2.51094 145.495 3.0816 145.495C3.62374 145.495 4.05174 145.409 4.28 145.237C4.50827 145.066 4.73654 144.837 4.9648 144.551L5.59254 145.008Z" fill="#424143"/>
<path d="M12.3264 139.199H9.10216V141.775H11.6702V142.433H9.10216V145.466H12.4691V146.125H8.27469V138.512H12.3264V139.199Z" fill="#424143"/>
<path d="M16.0358 139.886V146.125H15.2368V138.541H16.0358L19.8022 144.808V138.512H20.6011V146.096H19.8307L16.0358 139.886Z" fill="#424143"/>
<path d="M28.6475 139.228H26.2792V146.125H25.4518V139.228H23.112V138.512H28.619V139.228H28.6475Z" fill="#424143"/>
<path d="M31.9288 146.096H31.1299V138.512H33.1843C33.9832 138.512 34.5824 138.712 34.9819 139.084C35.4099 139.457 35.6096 139.972 35.6096 140.687C35.6096 141.145 35.467 141.574 35.1246 141.946C34.8392 142.318 34.4398 142.576 34.0403 142.69L36.1518 146.096H35.1816L33.2128 142.862C33.1843 142.862 32.7563 142.862 31.9288 142.862V146.096ZM31.9288 142.261H32.7278C33.384 142.261 33.8691 142.089 34.24 141.832C34.5824 141.546 34.7822 141.145 34.7822 140.687C34.7822 140.172 34.6395 139.8 34.3256 139.542C34.0403 139.285 33.5552 139.199 32.8704 139.199H31.9574V142.261H31.9288Z" fill="#424143"/>
<path d="M41.8299 146.239C40.7456 146.239 39.9467 145.867 39.376 145.152C38.7768 144.407 38.4915 143.406 38.4915 142.175C38.4915 141.059 38.8339 140.172 39.4616 139.428C40.1179 138.684 40.9168 138.34 41.887 138.34C42.9427 138.34 43.7416 138.712 44.3408 139.428C44.9115 140.172 45.1968 141.145 45.1968 142.318C45.1968 143.434 44.8544 144.379 44.2267 145.123C43.5704 145.867 42.7715 146.239 41.8299 146.239ZM41.8584 145.524C42.4862 145.524 43.0283 145.237 43.5419 144.665C44.027 144.064 44.2838 143.206 44.2838 142.089C44.2838 141.374 44.084 140.687 43.6846 140.029C43.2851 139.371 42.6859 139.027 41.887 139.027C41.088 139.027 40.4603 139.313 40.0038 139.914C39.5472 140.487 39.319 141.259 39.319 142.147C39.319 143.234 39.5472 144.064 40.0323 144.665C40.5459 145.237 41.1451 145.524 41.8584 145.524Z" fill="#424143"/>
<path d="M53.1862 138.512C54.3846 138.512 55.2977 138.856 55.8683 139.485C56.4675 140.143 56.7529 141.031 56.7529 142.147C56.7529 143.434 56.439 144.407 55.8113 145.066C55.1835 145.753 54.2705 146.096 53.1006 146.096H51.5598V138.512H53.1862ZM52.3873 139.142V145.466H52.9865C53.8995 145.466 54.5843 145.18 55.0979 144.636C55.6115 144.093 55.8683 143.234 55.8683 142.147C55.8683 141.202 55.6401 140.43 55.155 139.914C54.6699 139.371 53.9566 139.113 53.015 139.113H52.3873V139.142Z" fill="#424143"/>
<path d="M63.7721 139.199H60.5478V141.775H63.1158V142.433H60.5478V145.466H63.9147V146.125H59.7203V138.512H63.7721V139.199Z" fill="#424143"/>
<path d="M70.1065 146.096V138.512H70.9054V146.096H70.1065Z" fill="#424143"/>
<path d="M74.7859 139.886V146.125H73.9585V138.541H74.7859L78.5238 144.808V138.512H79.3513V146.096H78.5809L74.7859 139.886Z" fill="#424143"/>
<path d="M83.2603 139.886V146.125H82.4329V138.512H83.2603L87.0268 144.78V138.512H87.8542V146.096H87.0838L83.2603 139.886Z" fill="#424143"/>
<path d="M94.1316 146.239C93.0758 146.239 92.2484 145.867 91.6777 145.152C91.107 144.407 90.8217 143.406 90.8217 142.175C90.8217 141.059 91.1641 140.172 91.8204 139.428C92.4766 138.684 93.2756 138.34 94.2172 138.34C95.2729 138.34 96.0718 138.712 96.671 139.428C97.2417 140.172 97.527 141.145 97.527 142.318C97.527 143.434 97.2132 144.379 96.5569 145.123C95.9006 145.867 95.1017 146.239 94.1316 146.239ZM94.1601 145.524C94.7878 145.524 95.3585 145.237 95.8721 144.665C96.3572 144.064 96.614 143.206 96.614 142.089C96.614 141.374 96.4142 140.687 96.0148 140.029C95.6153 139.371 95.0446 139.027 94.2172 139.027C93.4182 139.027 92.7905 139.313 92.334 139.914C91.8774 140.487 91.6492 141.259 91.6492 142.147C91.6492 143.234 91.8774 144.064 92.3625 144.665C92.8761 145.237 93.4468 145.524 94.1601 145.524Z" fill="#424143"/>
<path d="M104.66 138.512H105.516L103.034 146.096H102.235L99.8097 138.512H100.694L102.635 144.923L104.66 138.512Z" fill="#424143"/>
<path d="M110.025 138.512H110.795L113.306 146.096H112.421L111.623 143.52H109.055L108.227 146.096H107.428L110.025 138.512ZM109.226 142.948H111.451L110.367 139.485L109.226 142.948Z" fill="#424143"/>
<path d="M121.267 145.008C121.01 145.352 120.696 145.638 120.354 145.867C119.983 146.096 119.469 146.21 118.813 146.21C117.871 146.21 117.101 145.838 116.559 145.123C115.988 144.379 115.731 143.406 115.731 142.232C115.731 141.145 115.988 140.229 116.53 139.456C117.072 138.684 117.871 138.312 118.898 138.312C119.326 138.312 119.726 138.369 120.068 138.483C120.382 138.598 120.725 138.856 121.01 139.17L120.496 139.685C120.268 139.457 120.011 139.285 119.754 139.17C119.469 139.056 119.155 138.999 118.841 138.999C118.128 138.999 117.557 139.285 117.158 139.914C116.758 140.544 116.53 141.259 116.53 142.089C116.53 143.177 116.758 144.007 117.215 144.608C117.672 145.209 118.185 145.495 118.756 145.495C119.326 145.495 119.726 145.409 119.983 145.237C120.24 145.066 120.468 144.837 120.668 144.551L121.267 145.008Z" fill="#424143"/>
<path d="M123.949 146.096V138.512H124.776V146.096H123.949Z" fill="#424143"/>
<path d="M131.054 146.239C129.998 146.239 129.171 145.867 128.6 145.152C128.029 144.407 127.744 143.406 127.744 142.175C127.744 141.059 128.086 140.172 128.743 139.428C129.399 138.684 130.198 138.34 131.139 138.34C132.195 138.34 132.994 138.712 133.593 139.428C134.164 140.172 134.449 141.145 134.449 142.318C134.449 143.434 134.135 144.379 133.508 145.123C132.823 145.867 132.052 146.239 131.054 146.239ZM131.111 145.524C131.739 145.524 132.309 145.237 132.794 144.665C133.279 144.064 133.536 143.205 133.536 142.089C133.536 141.374 133.365 140.687 132.965 140.029C132.595 139.371 131.967 139.027 131.168 139.027C130.397 139.027 129.741 139.313 129.285 139.914C128.857 140.487 128.6 141.259 128.6 142.147C128.6 143.234 128.857 144.064 129.313 144.665C129.798 145.237 130.397 145.524 131.111 145.524ZM130.483 137.711L131.967 136.051L132.509 136.652L130.74 137.997L130.483 137.711Z" fill="#424143"/>
<path d="M138.187 139.886V146.125H137.388L137.36 138.541H138.187L141.953 144.808V138.512H142.781V146.096H141.982L138.187 139.886Z" fill="#424143"/>
<path d="M150.97 146.096V142.633L148.744 138.512H149.629L151.398 141.918L153.167 138.512H154.052L151.797 142.547V146.096H150.97Z" fill="#424143"/>
<path d="M160.871 139.886V146.125H160.072L160.044 138.541H160.871L164.637 144.808V138.512H165.465V146.096H164.666L160.871 139.886Z" fill="#424143"/>
<path d="M172.57 139.199H169.345V141.775H171.942V142.433H169.345V145.466H172.712V146.125H168.547V138.512H172.598V139.199H172.57Z" fill="#424143"/>
<path d="M180.959 145.781C180.702 145.867 180.359 145.981 179.931 146.067C179.503 146.182 179.018 146.21 178.448 146.21C177.477 146.21 176.736 145.838 176.193 145.123C175.651 144.379 175.366 143.406 175.366 142.232C175.366 141.145 175.651 140.229 176.165 139.456C176.707 138.684 177.449 138.312 178.448 138.312C178.99 138.312 179.418 138.369 179.703 138.483C180.017 138.598 180.331 138.856 180.673 139.17L180.16 139.685C179.903 139.457 179.646 139.256 179.418 139.17C179.161 139.056 178.847 138.999 178.448 138.999C177.791 138.999 177.278 139.285 176.85 139.914C176.45 140.544 176.251 141.259 176.251 142.089C176.251 143.177 176.479 144.007 176.935 144.608C177.392 145.209 177.934 145.495 178.562 145.495C178.876 145.495 179.161 145.466 179.418 145.438C179.703 145.38 179.931 145.352 180.16 145.266V142.433H180.987V145.781H180.959Z" fill="#424143"/>
<path d="M186.865 146.239C185.809 146.239 184.982 145.867 184.411 145.152C183.84 144.407 183.555 143.406 183.555 142.175C183.555 141.059 183.869 140.172 184.525 139.428C185.182 138.684 185.98 138.34 186.951 138.34C188.006 138.34 188.805 138.712 189.376 139.428C189.947 140.172 190.232 141.145 190.232 142.318C190.232 143.434 189.918 144.379 189.262 145.123C188.634 145.867 187.835 146.239 186.865 146.239ZM186.922 145.524C187.55 145.524 188.092 145.237 188.606 144.665C189.119 144.064 189.347 143.206 189.347 142.089C189.347 141.374 189.148 140.687 188.777 140.029C188.377 139.371 187.778 139.027 186.951 139.027C186.18 139.027 185.552 139.313 185.096 139.914C184.639 140.487 184.411 141.259 184.411 142.147C184.411 143.234 184.668 144.064 185.124 144.665C185.581 145.237 186.209 145.524 186.922 145.524Z" fill="#424143"/>
<path d="M198.649 145.008C198.392 145.352 198.079 145.638 197.736 145.867C197.365 146.096 196.852 146.21 196.195 146.21C195.254 146.21 194.483 145.838 193.941 145.123C193.371 144.379 193.114 143.406 193.114 142.232C193.114 141.145 193.399 140.229 193.913 139.456C194.455 138.684 195.254 138.312 196.31 138.312C196.738 138.312 197.137 138.369 197.451 138.483C197.793 138.598 198.107 138.856 198.421 139.17L197.907 139.685C197.679 139.457 197.422 139.285 197.137 139.17C196.88 139.056 196.566 138.999 196.252 138.999C195.539 138.999 194.968 139.285 194.569 139.914C194.17 140.544 193.97 141.259 193.97 142.089C193.97 143.177 194.198 144.007 194.655 144.608C195.111 145.209 195.653 145.495 196.195 145.495C196.766 145.495 197.166 145.409 197.422 145.237C197.679 145.066 197.907 144.837 198.107 144.551L198.649 145.008Z" fill="#424143"/>
<path d="M201.36 146.096V138.512H202.187V146.096H201.36Z" fill="#424143"/>
<path d="M208.465 146.239C207.409 146.239 206.582 145.867 205.982 145.152C205.412 144.407 205.126 143.406 205.126 142.175C205.126 141.059 205.469 140.172 206.096 139.428C206.724 138.684 207.552 138.34 208.522 138.34C209.578 138.34 210.376 138.712 210.947 139.428C211.518 140.172 211.832 141.145 211.832 142.318C211.832 143.434 211.489 144.379 210.862 145.123C210.234 145.867 209.435 146.239 208.465 146.239ZM208.522 145.524C209.15 145.524 209.72 145.237 210.205 144.665C210.719 144.064 210.947 143.206 210.947 142.089C210.947 141.374 210.747 140.687 210.376 140.029C209.977 139.371 209.378 139.027 208.55 139.027C207.751 139.027 207.152 139.313 206.696 139.914C206.239 140.487 206.011 141.259 206.011 142.147C206.011 143.234 206.268 144.064 206.724 144.665C207.181 145.237 207.78 145.524 208.522 145.524Z" fill="#424143"/>
<path d="M215.027 144.579C215.256 144.808 215.541 145.066 215.883 145.266C216.197 145.466 216.568 145.552 217.025 145.552C217.51 145.552 217.938 145.438 218.223 145.209C218.537 144.951 218.68 144.636 218.68 144.207C218.68 143.778 218.537 143.463 218.252 143.234C217.966 143.034 217.595 142.833 217.025 142.633L216.625 142.461C216.055 142.261 215.569 141.975 215.17 141.632C214.771 141.288 214.571 140.83 214.571 140.258C214.571 139.685 214.828 139.228 215.256 138.856C215.712 138.512 216.254 138.34 216.939 138.34C217.453 138.34 217.909 138.426 218.252 138.569C218.594 138.712 218.908 138.941 219.193 139.228L218.708 139.771C218.508 139.571 218.252 139.399 217.966 139.228C217.681 139.084 217.339 138.999 216.939 138.999C216.483 138.999 216.112 139.084 215.826 139.313C215.512 139.514 215.398 139.8 215.398 140.115C215.398 140.515 215.541 140.83 215.883 141.059C216.226 141.288 216.568 141.488 216.911 141.603L217.652 141.918C218.394 142.204 218.908 142.49 219.136 142.805C219.393 143.12 219.536 143.52 219.536 144.035C219.536 144.722 219.279 145.266 218.794 145.638C218.309 146.01 217.71 146.21 216.996 146.21C216.711 146.21 216.426 146.21 216.197 146.153C215.969 146.096 215.741 146.039 215.512 145.953C215.313 145.867 215.113 145.753 214.942 145.609C214.742 145.466 214.571 145.295 214.4 145.123L215.027 144.579Z" fill="#424143"/>
<path d="M0.827484 44.673V99.4483H14.5235V44.673C14.5235 38.4915 17.4054 35.6297 23.54 35.6297H38.4915V21.8071H23.5115C8.44589 21.8071 0.827484 29.5054 0.827484 44.673ZM220.363 53.6591C220.363 50.0246 220.363 44.673 220.363 44.673C220.363 29.5054 212.716 21.8071 197.565 21.8071H140.641C140.641 19.7179 140.641 0.114473 140.641 0.114473L126.945 0C126.945 0 126.945 19.7466 126.945 21.8071H101.465V76.8685C101.465 82.8497 98.5828 85.6257 92.4481 85.6257H66.9107C60.7475 85.6257 57.8942 82.7639 57.8942 76.611V21.8071H44.1982V76.5823C44.1982 91.75 51.8451 99.4483 66.8822 99.4483H92.4195C107.542 99.4483 115.246 91.8358 115.246 76.8399V35.6297H126.945C126.945 37.8619 126.945 99.4483 126.945 99.4483H140.641C140.641 99.4483 140.641 37.8619 140.641 35.6297H197.565C203.7 35.6297 206.581 38.4915 206.581 44.673C206.581 44.673 206.581 50.0246 206.581 53.6591C190.831 53.6591 172.142 53.6591 172.142 53.6591C157.019 53.6591 149.344 60.8137 149.344 74.9511V77.8988C149.344 92.2079 156.991 99.4483 172.142 99.4483H197.536C212.688 99.4483 220.335 91.75 220.335 76.5823C220.335 76.5823 220.335 71.2021 220.335 67.5104C238.91 67.5104 242.933 67.5104 242.933 67.5104L257 53.6591C257.028 53.6591 245.073 53.6591 220.363 53.6591ZM206.581 76.5823C206.581 82.7352 203.7 85.5971 197.565 85.5971H172.17C166.007 85.5971 163.125 83.1645 163.125 77.8988V74.9511C163.125 69.8857 166.007 67.5104 172.142 67.5104C172.142 67.5104 190.061 67.5104 206.581 67.5104C206.581 71.2021 206.581 76.5823 206.581 76.5823Z" fill="#424143"/>
<path d="M253.604 13.8512L255.402 14.4236C254.318 17.1137 253.062 19.0884 251.579 20.3476C250.123 21.6068 248.611 22.2364 247.127 22.2364C245.843 22.2364 244.873 21.8643 244.16 21.2061C243.447 20.4907 243.076 19.5749 243.076 18.4015C243.076 17.3713 243.418 15.6828 244.074 13.422C245.044 9.98777 245.587 7.89864 245.758 7.09733C245.9 6.29602 246.015 5.66642 246.015 5.17991C246.015 4.63617 245.872 4.20689 245.615 3.89209C245.358 3.57729 245.016 3.4342 244.616 3.4342C243.903 3.4342 243.133 3.72038 242.305 4.34998C240.936 5.323 239.68 6.81115 238.453 8.78581C237.226 10.7605 236.342 12.7924 235.743 14.9101L233.802 21.8071L227.924 22.036L232.49 4.80788C232.518 4.63617 232.547 4.46446 232.547 4.29275C232.547 3.83486 232.404 3.52006 232.062 3.29111C231.748 3.06216 231.149 2.94769 230.264 2.94769H229.094L229.408 0.887181L238.995 0.457908L237.283 7.6697C240.565 2.66151 243.76 0.200344 246.871 0.200344C248.269 0.200344 249.439 0.629617 250.352 1.51678C251.236 2.40395 251.693 3.49144 251.693 4.83649C251.693 5.89537 251.464 7.2118 251.065 8.75719L249.153 16.3124C248.782 17.5144 248.583 18.2871 248.583 18.6019C248.583 18.8308 248.668 19.0025 248.754 19.0884C248.868 19.2028 249.039 19.2601 249.239 19.2601C249.724 19.2601 250.266 18.9739 250.837 18.3729C251.807 17.3426 252.691 15.8259 253.604 13.8512Z" fill="#83B14A"/>
</svg>
