<?xml version="1.0" encoding="utf-8"?>
<!-- Generator: Adobe Illustrator 22.0.1, SVG Export Plug-In . SVG Version: 6.00 Build 0)  -->
<svg version="1.1" id="Capa_1" xmlns="http://www.w3.org/2000/svg" xmlns:xlink="http://www.w3.org/1999/xlink" x="0px" y="0px"
	 viewBox="0 0 309 94" style="enable-background:new 0 0 309 94;" xml:space="preserve">
<style type="text/css">
	.st0{fill:#1C88C1;}
	.st1{fill:none;stroke:#1C88C1;stroke-miterlimit:10;}
	.st2{fill:#1C88C1;stroke:#1C88C1;stroke-width:2;stroke-miterlimit:10;}
	.st3{fill:none;stroke:#FFFFFF;stroke-miterlimit:10;}
	.st4{fill:#FFFFFF;}
	.st5{fill:#FFFFFF;stroke:#FFFFFF;stroke-width:2;stroke-miterlimit:10;}
</style>
<g>
	<path class="st4" d="M78.1,60C72.5,75,53.1,77.1,56,61.5c1-5.4,2.1-11,3.2-17.1c1.7-8-5.9-2-8.4,4.4c-0.1,0.1-0.1,0.3-0.2,0.6
		c-0.4,2.2-3.6,20.7-4,22.5h-9.2c2-10.9,3.4-19.6,4.8-27.2c1.3-7.4-5.7-3-8.6,2.9c-0.1,0.1-0.1,0.1-0.1,0.3l-4.8,24.1H19l7-35h9.7
		l-0.9,4.8c5.6-6.7,15.7-7.6,16.3,2c7.4-10,20-10.7,16.6,5.7l-1.1,6.2c-0.6,3-0.6,3.2-1.7,8.9c-1.2,5.5,8.2,2.1,10.5-4.6H78.1z"/>
	<path class="st4" d="M94.7,62.8c-4.1,7.6-8.4,9.5-14.4,9.4c-10-0.3-10.1-12.9-5.2-20.7c4-6.2,10.9-7.5,13.9-5
		c2.7,2.2,2.7,6.2,1.2,9.3c-2.4,4.4-6.8,6-11.3,5.8c0.1,2.5,1,5.5,3.3,6.6c4.1,1.9,8.3-1.3,10.8-5.4H94.7z M78.9,59.1
		c8.3,0.3,9.3-9.7,8-10.8c-1.1-0.8-3.4,0.2-5.3,3.2c-1.1,1.7-2.1,4.1-2.6,7C78.9,58.8,78.9,59,78.9,59.1z"/>
	<path class="st4" d="M123.8,62.6c-3.6,10-16.3,13.4-17,4.1c-5.6,8.4-17.6,7-16.6-4.1c1.4-16,14.7-19.7,19.2-16
		c0.2,0.2,0.4,0.5,0.7,0.8l2.5-12.4h7.2c-1.9,9.6-4.9,25-6.2,31.1c-1.2,6.2,6.4,1.6,8.1-3.5H123.8z M109.5,50.1
		c-3.2-5.8-9.5-0.2-11.2,8.4c-2.1,9.6,1.4,14.6,8.7,4.7c0-0.3,0.1-0.6,0.1-0.9L109.5,50.1z"/>
	<path class="st4" d="M142,62.8c-4.1,7.6-8.4,9.5-14.4,9.4c-10-0.3-10.1-12.9-5.2-20.7c4-6.2,10.9-7.5,13.9-5
		c2.7,2.2,2.7,6.2,1.2,9.3c-2.4,4.4-6.8,6-11.3,5.8c0.1,2.5,1,5.5,3.3,6.6c4.1,1.9,8.3-1.3,10.8-5.4H142z M126.2,59.1
		c8.3,0.3,9.3-9.7,8-10.8c-1.1-0.8-3.4,0.2-5.3,3.2c-1.1,1.7-2.1,4.1-2.6,7C126.3,58.8,126.2,59,126.2,59.1z"/>
	<path class="st4" d="M156.2,63c-4,10.8-18.8,13.7-16-0.4l5.5-27.7h7.1c-1.8,9-5.2,25.3-6.4,31.4c-1.2,6,6.2,1.5,7.8-3.4H156.2z"/>
	<path class="st4" d="M170,63c-4,10.8-18.8,13.7-16-0.4l5.5-27.7h7.1c-1.8,9-5.2,25.3-6.4,31.4c-1.2,6,6.2,1.5,7.8-3.4H170z"/>
	<path class="st4" d="M183.5,62.6c-4.2,11.4-20.1,14.4-17.1-0.3l3.5-16.7h7.3c-1.7,8.9-2.9,14.3-4.1,20.5c-1.2,6.3,6.6,1.6,8.4-3.5
		H183.5z M180.6,32.3L176,42.3h-4.2l3.1-10L180.6,32.3z"/>
	<path class="st4" d="M212.5,62.7c-4.6,12.1-18.9,13.4-16.6-0.3c0.7-3.7,1.4-7.4,2.1-11.1c1.2-6.1-6-1.7-7.9,3.1l-3.3,17.5h-7.5
		l5.3-26.3h7.2l-0.8,4c5.7-6.4,15.7-6.2,13.5,5.6c-1.3,6.5-0.9,4.6-2.1,11.1c-1.2,6.5,6.3,1.6,8-3.5H212.5z"/>
</g>
<g>
	<path class="st5" d="M247.2,54.6c0,2.6-0.3,4.8-0.9,6.8c-0.6,1.9-1.5,3.6-2.7,4.9c-1.2,1.3-2.6,2.3-4.2,2.9c-1.6,0.7-3.5,1-5.5,1
		c-1.9,0-3.8-0.3-5.8-1c0-0.1,0-0.3,0.1-0.4c0-0.1,0-0.3,0.1-0.4c0-0.1,0.1-0.2,0.1-0.3c0.1-0.1,0.2-0.2,0.4-0.2
		c0.2,0,0.4,0,0.7,0.1c0.3,0.1,0.6,0.2,1,0.3s0.8,0.2,1.4,0.3c0.5,0.1,1.1,0.1,1.9,0.1c1.8,0,3.4-0.3,4.8-0.9
		c1.4-0.6,2.7-1.4,3.7-2.6c1-1.2,1.8-2.6,2.3-4.4s0.8-3.8,0.8-6.2v-31h1.8V54.6z"/>
	<path class="st5" d="M277.5,28.5c-0.1,0.2-0.3,0.3-0.6,0.3s-0.6-0.2-1-0.6c-0.4-0.4-1-0.9-1.8-1.4c-0.8-0.5-1.7-1-2.9-1.4
		c-1.2-0.4-2.7-0.6-4.4-0.6c-1.8,0-3.4,0.3-4.8,0.8c-1.4,0.5-2.5,1.3-3.5,2.2c-0.9,0.9-1.6,2-2.1,3.2c-0.5,1.2-0.7,2.4-0.7,3.7
		c0,1.7,0.3,3.1,1,4.2c0.7,1.1,1.6,2.1,2.7,2.8c1.1,0.8,2.4,1.4,3.8,1.9c1.4,0.5,2.8,1,4.3,1.5c1.5,0.5,2.9,1,4.3,1.6
		c1.4,0.6,2.7,1.3,3.8,2.1c1.1,0.9,2,1.9,2.7,3.2c0.7,1.3,1,2.8,1,4.7c0,1.9-0.3,3.7-1,5.3c-0.6,1.7-1.6,3.1-2.8,4.3
		s-2.7,2.2-4.5,2.9c-1.8,0.7-3.8,1.1-6.1,1.1c-1.5,0-2.9-0.1-4.2-0.4c-1.3-0.3-2.4-0.7-3.5-1.2c-1.1-0.5-2-1.1-2.9-1.9
		c-0.9-0.7-1.7-1.6-2.5-2.5l0.4-0.7c0.1-0.1,0.2-0.2,0.3-0.2c0.1-0.1,0.2-0.1,0.3-0.1s0.4,0.1,0.6,0.4c0.3,0.3,0.6,0.6,1.1,1
		c0.4,0.4,1,0.8,1.6,1.3c0.6,0.5,1.3,0.9,2.2,1.3c0.8,0.4,1.8,0.7,2.9,1c1.1,0.3,2.3,0.4,3.7,0.4c2,0,3.8-0.3,5.3-0.9s2.9-1.5,4-2.6
		c1.1-1.1,1.9-2.3,2.5-3.8c0.6-1.4,0.9-3,0.9-4.6c0-1.7-0.3-3.2-1-4.3c-0.7-1.1-1.6-2.1-2.7-2.8c-1.1-0.8-2.4-1.4-3.8-1.9
		c-1.4-0.5-2.9-1-4.3-1.5c-1.5-0.5-2.9-1-4.3-1.5c-1.4-0.6-2.7-1.3-3.8-2.1c-1.1-0.9-2-1.9-2.7-3.2c-0.7-1.3-1-2.9-1-4.8
		c0-1.5,0.3-2.9,0.9-4.3c0.6-1.4,1.4-2.6,2.5-3.6c1.1-1.1,2.4-1.9,4-2.5c1.6-0.6,3.4-0.9,5.4-0.9c2.3,0,4.4,0.4,6.1,1.1
		c1.8,0.7,3.4,1.9,5,3.5L277.5,28.5z"/>
</g>
<polygon class="st3" points="292,70.4 292,28.4 255.6,7.3 219.1,28.4 219.1,70.4 255.6,91.5 "/>
</svg>
