<?xml version="1.0" encoding="UTF-8"?>
<svg width="500px" height="447px" viewBox="0 0 500 447" version="1.1" xmlns="//www.w3.org/2000/svg" xmlns:xlink="//www.w3.org/1999/xlink">
    <!-- Generator: Sketch 60.1 (88133) - https://sketch.com -->
    <title>React-icon</title>
    <desc>Created with Sketch.</desc>
    <g id="Page-1" stroke="none" stroke-width="1" fill="none" fill-rule="evenodd">
        <g id="Logo">
            <g id="React-icon">
                <path d="M500,223.551156 C500,190.29984 458.520179,158.787823 394.924582,139.246281 C409.600489,74.1760128 403.077864,22.4062715 374.337546,5.83176928 C367.713004,1.94392309 359.967387,0.102311742 351.508357,0.102311742 L351.508357,22.9178302 C356.196494,22.9178302 359.967387,23.8386358 363.126784,25.5779355 C376.987362,33.5582513 383.000408,63.9448386 378.312271,103.027924 C377.191194,112.645228 375.356706,122.77409 373.114554,133.107576 C353.139013,128.196612 331.328985,124.411078 308.39788,121.955596 C294.639217,103.027924 280.370974,85.8395514 266.000815,70.7997253 C299.225438,39.7992676 330.411741,22.8155184 351.610273,22.8155184 L351.610273,0 C351.610273,0 351.610273,0 351.610273,0 C323.583367,0 286.8936,20.0531014 249.796168,54.8390936 C212.698736,20.2577249 176.008969,0.409246967 147.982063,0.409246967 L147.982063,23.2247654 C169.078679,23.2247654 200.366898,40.1062028 233.591521,70.9020371 C219.323278,85.9418631 205.055035,103.027924 191.500204,121.955596 C168.467183,124.411078 146.657155,128.196612 126.681614,133.209888 C124.337546,122.978714 122.604974,113.054475 121.381981,103.539483 C116.591928,64.4563973 122.503057,34.06981 136.26172,25.9871824 C139.319201,24.1455711 143.293926,23.3270771 147.982063,23.3270771 L147.982063,0.511558709 C147.982063,0.511558709 147.982063,0.511558709 147.982063,0.511558709 C139.421117,0.511558709 131.675499,2.35317006 124.949042,6.24101625 C96.31064,22.8155184 89.8899307,74.482948 104.667754,139.348592 C41.2759886,158.992447 0,190.402152 0,223.551156 C0,256.802472 41.4798206,288.314488 105.075418,307.856031 C90.3995108,372.926299 96.9221362,424.69604 125.662454,441.270542 C132.286996,445.158389 140.032613,447 148.593559,447 C176.620465,447 213.310232,426.946899 250.407664,392.160906 C287.505096,426.742275 324.194863,446.590753 352.221769,446.590753 C360.782715,446.590753 368.528333,444.749142 375.25479,440.861295 C403.893192,424.286793 410.313901,372.619364 395.536078,307.753719 C458.724011,288.212177 500,256.70016 500,223.551156 Z M367.30534,155.309224 C363.534448,168.507439 358.846311,182.1149 353.546678,195.722362 C349.368121,187.537423 344.985732,179.352483 340.195679,171.167544 C335.507542,162.982605 330.513657,155.002289 325.519772,147.226596 C339.991847,149.375143 353.954342,152.035248 367.30534,155.309224 Z M320.627803,264.271229 C312.678353,278.083314 304.525071,291.179217 296.066042,303.354314 C280.880554,304.684367 265.491235,305.400549 250,305.400549 C234.610681,305.400549 219.221362,304.684367 204.13779,303.456626 C195.678761,291.281529 187.423563,278.287938 179.474113,264.578164 C171.728496,251.175326 164.69629,237.567864 158.275581,223.858091 C164.594374,210.148318 171.728496,196.438544 179.372197,183.035706 C187.321647,169.223621 195.474929,156.127718 203.933958,143.952621 C219.119446,142.622568 234.508765,141.906386 250,141.906386 C265.389319,141.906386 280.778638,142.622568 295.86221,143.850309 C304.321239,156.025406 312.576437,169.018997 320.525887,182.728771 C328.271504,196.131609 335.30371,209.739071 341.724419,223.448844 C335.30371,237.158618 328.271504,250.868391 320.627803,264.271229 Z M353.546678,250.970703 C359.050143,264.680476 363.73828,278.390249 367.611088,291.690776 C354.26009,294.964752 340.195679,297.727169 325.621688,299.875715 C330.615573,291.997711 335.609458,283.915084 340.297595,275.627832 C344.985732,267.442893 349.368121,259.155642 353.546678,250.970703 Z M250.203832,360.137331 C240.725642,350.315404 231.247452,339.368048 221.871178,327.397574 C231.04362,327.806821 240.419894,328.113756 249.898084,328.113756 C259.47819,328.113756 268.95638,327.909133 278.230738,327.397574 C269.058296,339.368048 259.580106,350.315404 250.203832,360.137331 Z M174.378312,299.875715 C159.906237,297.727169 145.943742,295.067063 132.592744,291.793088 C136.363636,278.594873 141.051773,264.987411 146.351406,251.37995 C150.529963,259.564889 154.912352,267.749828 159.702405,275.934768 C164.492458,284.119707 169.384427,292.100023 174.378312,299.875715 Z M249.694252,86.9649805 C259.172442,96.7869078 268.650632,107.734264 278.026906,119.704738 C268.854464,119.295491 259.47819,118.988556 250,118.988556 C240.419894,118.988556 230.941704,119.193179 221.667346,119.704738 C230.839788,107.734264 240.317978,96.7869078 249.694252,86.9649805 Z M174.276396,147.226596 C169.282511,155.104601 164.288626,163.187228 159.600489,171.474479 C154.912352,179.659419 150.529963,187.844358 146.351406,196.029297 C140.847941,182.319524 136.159804,168.609751 132.286996,155.309224 C145.637994,152.13756 159.702405,149.375143 174.276396,147.226596 Z M82.0423971,275.320897 C45.9641256,259.871824 22.6253567,239.614099 22.6253567,223.551156 C22.6253567,207.488212 45.9641256,187.128176 82.0423971,171.781415 C90.8071749,167.99588 100.387281,164.619593 110.273135,161.447929 C116.082348,181.50103 123.72605,202.372625 133.20424,223.755779 C123.827966,245.036622 116.28618,265.805905 110.578883,285.756695 C100.489197,282.585031 90.9090909,279.106432 82.0423971,275.320897 Z M136.873216,421.524376 C123.012638,413.54406 116.999592,383.157473 121.687729,344.074388 C122.808806,334.457084 124.643294,324.328222 126.885446,313.994736 C146.860987,318.905699 168.671015,322.691234 191.60212,325.146715 C205.360783,344.074388 219.629026,361.26276 233.999185,376.302586 C200.774562,407.303044 169.588259,424.286793 148.389727,424.286793 C143.803506,424.184482 139.930697,423.263676 136.873216,421.524376 Z M378.618019,343.562829 C383.408072,382.645914 377.496943,413.032502 363.73828,421.115129 C360.680799,422.956741 356.706074,423.775235 352.017937,423.775235 C330.921321,423.775235 299.633102,406.893797 266.408479,376.097963 C280.676722,361.058137 294.944965,343.972076 308.499796,325.044404 C331.532817,322.588922 353.342845,318.803388 373.318386,313.790112 C375.662454,324.123598 377.496943,334.047837 378.618019,343.562829 Z M417.855687,275.320897 C409.090909,279.106432 399.510803,282.482719 389.624949,285.654383 C383.815736,265.601282 376.172034,244.729686 366.693844,223.346532 C376.070118,202.06569 383.611904,181.296407 389.319201,161.345617 C399.408887,164.517281 408.988993,167.99588 417.957603,171.781415 C454.035874,187.230488 477.374643,207.488212 477.374643,223.551156 C477.272727,239.614099 453.933958,259.974136 417.855687,275.320897 Z" id="Shape" fill="#112B42" fill-rule="nonzero"></path>
                <g id="Group" transform="translate(204.000000, 179.000000)">
                    <path d="M92.9096739,0.000302300959 C91.8278989,24.4809591 71.4431818,43.9992614 46.4548242,43.9992614 C21.4664666,43.9992614 1.08174948,24.4809591 -2.55383378e-05,0.000302300959 Z" id="Combined-Shape" fill="#FFD700" transform="translate(46.454824, 21.999631) scale(1, -1) translate(-46.454824, -21.999631) "></path>
                    <path d="M46.4548247,64.9768819 C63.4089893,64.9768819 78.2928621,74.0417435 86.7249884,87.6907127 L6.184661,87.6907127 C14.6167874,74.0417435 29.5006602,64.9768819 46.4548247,64.9768819 Z" id="Combined-Shape" fill="#D0133D" transform="translate(46.454825, 76.333797) scale(1, -1) translate(-46.454825, -76.333797) "></path>
                    <path d="M86.4289768,43.9977484 C90.2431519,50.336007 92.5636874,57.6580973 92.9096739,65.4878 L92.9089745,65.4867317 L1.87469974e-05,65.486798 C0.346158932,57.6574726 2.66665917,50.3357366 6.48067155,43.9977484 Z" id="Combined-Shape" fill="#1C4F95" transform="translate(46.454824, 54.742766) scale(1, -1) translate(-46.454824, -54.742766) "></path>
                </g>
            </g>
        </g>
    </g>
</svg>
