<svg id="Layer_1" data-name="Layer 1" xmlns="http://www.w3.org/2000/svg" viewBox="0 0 718.55 727"><defs><style>.cls-1{fill:#fbf4a0;}.cls-2{fill:#fbdbd8;}.cls-3{fill:#214382;}.cls-4{fill:#224283;}.cls-5{fill:#f04d3a;}</style></defs><title>logo-cssconfco</title><path class="cls-1" d="M609.81,686.51l-216.89-167L176,686.51a342.29,342.29,0,0,0,433.79,0Z" transform="translate(-40.72 -37)"/><path class="cls-2" d="M600,648.93q8.52-7,16.59-14.5A342.38,342.38,0,0,0,383.13,41.62C194,41.62,40.72,194.91,40.72,384A341.55,341.55,0,0,0,157.39,641.45c2.9,2.55,5.86,5,8.84,7.47l216.9-167Z" transform="translate(-40.72 -37)"/><path class="cls-3" d="M285.33,261.76q-10.81-11.08-10.81-30.64,0-21.1,10.42-32.71t31.37-11.59a73.81,73.81,0,0,1,24.61,4v12.3a64.81,64.81,0,0,0-23.56-4.27q-15.24,0-21.88,8t-6.64,24.22q0,14.77,7.1,22.28t21.68,7.52a65.31,65.31,0,0,0,23.43-4v12.44a82.27,82.27,0,0,1-24.61,3.49Q296.13,272.83,285.33,261.76Z" transform="translate(-40.72 -37)"/><path class="cls-4" d="M316.44,274c-13.81,0-24.56-3.84-32-11.43s-11.15-18.17-11.15-31.47c0-14.31,3.61-25.58,10.72-33.5s18-12,32.27-12a75.46,75.46,0,0,1,25,4.08l.79.28v14.89l-1.62-.63a64,64,0,0,0-23.13-4.19c-9.74,0-16.79,2.55-21,7.6s-6.37,13-6.37,23.46c0,9.49,2.28,16.71,6.77,21.46s11.48,7.15,20.82,7.15a64.55,64.55,0,0,0,23-3.94l1.61-.62v15l-.83.26A83.75,83.75,0,0,1,316.44,274Zm-.12-86c-13.56,0-23.82,3.77-30.5,11.2s-10.11,18.2-10.11,31.91c0,12.66,3.52,22.69,10.47,29.81h0c6.94,7.11,17.12,10.71,30.26,10.71a81.92,81.92,0,0,0,23.42-3.19V258.6a67.76,67.76,0,0,1-22.24,3.51c-10,0-17.61-2.66-22.55-7.89s-7.42-13-7.42-23.1c0-11,2.33-19.43,6.92-25s12.31-8.46,22.79-8.46a66.7,66.7,0,0,1,22.37,3.75v-9.75A73.6,73.6,0,0,0,316.32,188Z" transform="translate(-40.72 -37)"/><path class="cls-3" d="M354.07,268.69V256.25a68.61,68.61,0,0,0,24.87,4.67q10.55,0,15.3-2.47t4.75-9.19a10.55,10.55,0,0,0-2-6.8,15.65,15.65,0,0,0-6.57-4.34A121.77,121.77,0,0,0,376.73,234q-13.55-3.5-19-8.87t-5.47-14.83q0-11.15,8.2-17.3t24-6.15a89,89,0,0,1,13.34,1,58.59,58.59,0,0,1,10.48,2.4v12.43a61.21,61.21,0,0,0-21.87-3.75q-9.9,0-14.84,2.59t-4.95,8.81a9.35,9.35,0,0,0,1.82,6,15.11,15.11,0,0,0,6.06,4,95,95,0,0,0,12.69,3.82q14.72,3.75,20.44,9.71t5.73,15.42q0,11.14-8.4,17.36t-24.67,6.21Q364,272.83,354.07,268.69Z" transform="translate(-40.72 -37)"/><path class="cls-4" d="M380.24,274c-11,0-19.92-1.42-26.63-4.23l-.73-.31v-15l1.62.62a67.82,67.82,0,0,0,24.44,4.59c6.8,0,11.77-.79,14.75-2.33,2.77-1.43,4.11-4.1,4.11-8.14A9.48,9.48,0,0,0,396,243.2a14.63,14.63,0,0,0-6.08-4,122.34,122.34,0,0,0-13.53-4.1c-9.19-2.37-15.77-5.46-19.55-9.17s-5.82-9.08-5.82-15.68c0-7.79,2.92-13.93,8.68-18.25s13.95-6.39,24.67-6.39a91.63,91.63,0,0,1,13.52,1,60.63,60.63,0,0,1,10.7,2.45l.79.29v15l-1.61-.61a60.09,60.09,0,0,0-21.45-3.68c-6.37,0-11.18.82-14.29,2.45-2.9,1.52-4.31,4.06-4.31,7.76a8.17,8.17,0,0,0,1.56,5.27,14,14,0,0,0,5.58,3.67A94,94,0,0,0,387.42,223c10,2.55,17.06,5.93,21,10.05s6.06,9.65,6.06,16.24c0,7.79-3,13.95-8.88,18.31S391.3,274,380.24,274Zm-25-6.13c6.34,2.49,14.73,3.75,25,3.75,10.54,0,18.6-2,24-6s7.91-9.31,7.91-16.4c0-6-1.81-10.87-5.4-14.59s-10.33-6.95-19.87-9.39A96,96,0,0,1,374,221.41a16.08,16.08,0,0,1-6.53-4.37,10.54,10.54,0,0,1-2.08-6.77c0-4.61,1.88-7.93,5.59-9.87,3.5-1.83,8.54-2.72,15.39-2.72A63.47,63.47,0,0,1,407,200.93V191a62.28,62.28,0,0,0-9.46-2.07,88.35,88.35,0,0,0-13.17-1c-10.19,0-18,2-23.25,5.91s-7.72,9.25-7.72,16.35c0,5.94,1.72,10.65,5.11,14s9.69,6.3,18.47,8.57A123.26,123.26,0,0,1,390.84,237a17,17,0,0,1,7.06,4.7,11.81,11.81,0,0,1,2.28,7.55c0,5-1.82,8.4-5.4,10.25-3.37,1.75-8.55,2.6-15.84,2.6A70,70,0,0,1,355.26,258Z" transform="translate(-40.72 -37)"/><path class="cls-3" d="M421.77,268.69V256.25a68.69,68.69,0,0,0,24.87,4.67q10.55,0,15.3-2.47t4.75-9.19a10.61,10.61,0,0,0-2-6.8,15.63,15.63,0,0,0-6.58-4.34A121.77,121.77,0,0,0,444.43,234q-13.55-3.5-19-8.87T420,210.27q0-11.15,8.2-17.3t24-6.15a89.24,89.24,0,0,1,13.35,1,58.8,58.8,0,0,1,10.48,2.4v12.43a61.31,61.31,0,0,0-21.88-3.75q-9.88,0-14.84,2.59t-5,8.81a9.3,9.3,0,0,0,1.83,6,15,15,0,0,0,6,4,94.72,94.72,0,0,0,12.7,3.82q14.7,3.75,20.44,9.71T481,249.26q0,11.14-8.4,17.36t-24.68,6.21Q431.67,272.83,421.77,268.69Z" transform="translate(-40.72 -37)"/><path class="cls-4" d="M448,274c-11,0-19.93-1.42-26.64-4.23l-.72-.31v-15l1.61.62a67.82,67.82,0,0,0,24.44,4.59c6.81,0,11.77-.79,14.75-2.33,2.77-1.43,4.11-4.1,4.11-8.14a9.54,9.54,0,0,0-1.75-6.06,14.68,14.68,0,0,0-6.09-4,122.72,122.72,0,0,0-13.52-4.1c-9.2-2.37-15.77-5.46-19.55-9.17s-5.83-9.08-5.83-15.68c0-7.79,2.92-13.93,8.68-18.25s14-6.39,24.67-6.39a91.63,91.63,0,0,1,13.52,1,60.41,60.41,0,0,1,10.7,2.45l.8.29v15l-1.61-.61a60.19,60.19,0,0,0-21.46-3.68c-6.37,0-11.17.82-14.29,2.45-2.9,1.52-4.31,4.06-4.31,7.76a8.23,8.23,0,0,0,1.56,5.27,14,14,0,0,0,5.59,3.67A94,94,0,0,0,455.13,223c10,2.55,17.05,5.93,21,10.05s6.06,9.65,6.06,16.24c0,7.79-3,13.95-8.88,18.31S459,274,448,274Zm-25-6.13c6.34,2.49,14.74,3.75,25,3.75,10.53,0,18.6-2,24-6s7.92-9.31,7.92-16.4c0-6-1.82-10.87-5.4-14.59s-10.34-6.95-19.88-9.39a96.23,96.23,0,0,1-12.85-3.87,16,16,0,0,1-6.53-4.37,10.54,10.54,0,0,1-2.09-6.77c0-4.61,1.88-7.93,5.59-9.87,3.5-1.83,8.54-2.72,15.39-2.72a63.57,63.57,0,0,1,20.69,3.25V191a62.72,62.72,0,0,0-9.47-2.07,88.16,88.16,0,0,0-13.17-1c-10.19,0-18,2-23.24,5.91s-7.73,9.25-7.73,16.35c0,5.94,1.72,10.65,5.11,14s9.7,6.3,18.48,8.57A123,123,0,0,1,458.54,237a16.94,16.94,0,0,1,7.07,4.7,11.83,11.83,0,0,1,2.28,7.55c0,5-1.82,8.4-5.4,10.25-3.37,1.75-8.55,2.6-15.85,2.6A70,70,0,0,1,423,258Z" transform="translate(-40.72 -37)"/><path class="cls-4" d="M632.57,647.08,415.66,480,198.74,647.08l-.75-.61c-3.34-2.73-6.24-5.19-8.87-7.5A344.63,344.63,0,0,1,103.67,524.8,343.58,343.58,0,0,1,619.42,103.91,342.91,342.91,0,0,1,759.28,380.62,342.67,342.67,0,0,1,650,631.92c-5.26,4.91-10.86,9.81-16.65,14.55ZM415.66,476.94,632.53,644c5.48-4.52,10.78-9.17,15.78-13.83A340.83,340.83,0,0,0,669.85,153,342,342,0,0,0,557.19,70.09a341.15,341.15,0,0,0-414.69,515,343.83,343.83,0,0,0,48.23,52.08c2.41,2.12,5.05,4.36,8.06,6.83Z" transform="translate(-40.72 -37)"/><path class="cls-4" d="M415.66,724.24A342.23,342.23,0,0,1,198,646.47l-1.19-1L415.66,476.94,634.51,645.5l-1.19,1a342,342,0,0,1-217.66,77.77ZM200.72,645.55a340.7,340.7,0,0,0,429.87,0L415.66,480Z" transform="translate(-40.72 -37)"/><circle class="cls-5" cx="374.93" cy="517.63" r="18.17"/><path class="cls-3" d="M698.12,331.47a5,5,0,0,0-5.19-.35l-.46.3A93.61,93.61,0,0,1,669.07,346a122.51,122.51,0,0,1-28.91,8.66,131.38,131.38,0,0,1-31,1.61A104.47,104.47,0,0,1,581,350.53c1.47-3.55,3.11-7.09,4.89-10.53,1.9-3.71,3.88-7.38,5.88-10.94a176.53,176.53,0,0,0,50-25.17c14.74-10.8,26.47-23.45,34.83-37.53a51.66,51.66,0,0,0,3.31-5.87,45.2,45.2,0,0,0,2.69-7,25.79,25.79,0,0,0,1-7.22,10.22,10.22,0,0,0-2.7-6.93,11.12,11.12,0,0,0-7.4-4.23,20.28,20.28,0,0,0-8.35.69,35.52,35.52,0,0,0-7.61,3.25,58.44,58.44,0,0,0-6.05,3.89A192.07,192.07,0,0,0,635.87,256c-5,4.62-9.8,9.28-14.34,13.87-7.53,7.63-14.67,15.6-21.24,23.71a233,233,0,0,0-18,25.57c-2.39,4.1-4.69,8.31-6.88,12.53-6.9,5.28-14.08,10.49-21.38,15.48a224.75,224.75,0,0,1-25.29,14.87,22.19,22.19,0,0,1-11.21,2.41c-2.25-.1-4.93-.68-5.75-4.38a13.31,13.31,0,0,1,.38-6.93c.8-2.6,1.61-5,2.43-7.26q1.61-6,3-11.58a106.52,106.52,0,0,0,2.24-11.71,40.25,40.25,0,0,0,.21-7c-.17-2.82-2.16-5.09-5.74-6.55a13.87,13.87,0,0,0-9.55-.38,40.2,40.2,0,0,0-7.65,3.29,117,117,0,0,0-17.2,13.59q-4.22,4-7.82,8.2a28.28,28.28,0,0,1,1.93-4.62,21.12,21.12,0,0,0,2.34-7.41c.39-1.69-.82-3.1-3.35-3.89s-4.87-.45-6.3.89a19.48,19.48,0,0,0-6.25,7.6,41.54,41.54,0,0,0-2.2,6.13,55.57,55.57,0,0,1-19.65,8.3,213.52,213.52,0,0,1-26.25,3.84,123.82,123.82,0,0,1-13.53-.15A77.92,77.92,0,0,1,387.34,343a22.3,22.3,0,0,0,1.9-2.75l2.39-4.16a41.15,41.15,0,0,0,5-11.78,13.24,13.24,0,0,0-3.1-12.5A19.47,19.47,0,0,0,383,305.52a28.57,28.57,0,0,0-12.68-.17,32.94,32.94,0,0,0-11.15,4.57,16.82,16.82,0,0,0-6.89,8,16.22,16.22,0,0,0-1,9.28,44.56,44.56,0,0,0-4.14,5.27,97.37,97.37,0,0,1-12.79,11.06,111,111,0,0,1-17.95,10.6,89.15,89.15,0,0,1-20.29,6.7,77,77,0,0,1-21.41,1.3,31.44,31.44,0,0,1-11.06-2.88,24,24,0,0,1-7.8-5.83,19.53,19.53,0,0,1-4.15-7.88,15.33,15.33,0,0,1,.38-8.83c1.77-5.29,5.62-10,11.4-13.93a44,44,0,0,1,5.53-3,1,1,0,0,1,.34-.1s.91.2,2.28,2.09c1.25,1.56,1.09,3.5-.49,5.95a18.87,18.87,0,0,1-5.1,5.65l-.34.21-.19.28a1.79,1.79,0,0,0,.38,2.63,4.17,4.17,0,0,0,4,.33l.52-.27a41.61,41.61,0,0,0,9.05-8.47c2.79-3.51,3.75-7.19,2.87-10.94-1.2-5.08-5.33-6.77-8.57-7.29a25.5,25.5,0,0,0-12.46,1.05,40.08,40.08,0,0,0-13.22,7.95,36.15,36.15,0,0,0-8.39,11.28,29.52,29.52,0,0,0-2.06,6A54.77,54.77,0,0,1,225,351.76c-12.11,10.15-39,19.18-92.52,11.17a3,3,0,0,0-3.45,2.36,2.86,2.86,0,0,0,2.51,3.25,258.2,258.2,0,0,0,38,3.11c25.81,0,51.06-5.93,64.75-16.3a37.16,37.16,0,0,0,4.54-3.94,26.1,26.1,0,0,0,1.74,3.57,28.68,28.68,0,0,0,11.19,10.24,44.42,44.42,0,0,0,15.27,4.5,74.31,74.31,0,0,0,8.38.47,81.68,81.68,0,0,0,8.64-.47,105.18,105.18,0,0,0,16.58-3.09,120.6,120.6,0,0,0,31.27-13.05,113,113,0,0,0,11.63-8.08,15.11,15.11,0,0,0,2.57,4.77,18,18,0,0,0,9.82,6.43,23,23,0,0,0,6.28.86,25.09,25.09,0,0,0,6.61-.9,35.54,35.54,0,0,0,7.15-3.23,45,45,0,0,0,5.1-3.56c1.24.27,2.58.52,4,.75,1.92.3,3.71.56,5.42.77a144.24,144.24,0,0,0,41-1.54,79.42,79.42,0,0,0,25.06-8.93c-.06.51-.11,1-.14,1.49-.15,2.63,1,5.23,3.31,7.59a4.1,4.1,0,0,0,3.08,1.56h.6l.9-.06a4.23,4.23,0,0,0,1.84.45,4.49,4.49,0,0,0,3.43-1.47,90.77,90.77,0,0,0,9.75-9.1,116.9,116.9,0,0,1,9.22-9,92.53,92.53,0,0,1,10.65-9.13l.27-.24a24.38,24.38,0,0,1,2.42-2.22,25.41,25.41,0,0,1,3.34-2.36,6.28,6.28,0,0,1,2.38-.86,2.06,2.06,0,0,1,.75.76,3.66,3.66,0,0,1,.39,2.38,22.88,22.88,0,0,1-.76,3.86c-.4,1.4-.8,2.74-1.2,4s-.74,2.34-1,3.22a61.93,61.93,0,0,1-2,6.48,63.19,63.19,0,0,0-2,6.62,74.67,74.67,0,0,0-2.66,9.31,12.33,12.33,0,0,0,2.38,10,15,15,0,0,0,7.94,6.65,22.64,22.64,0,0,0,7.26,1.18c.83,0,1.67-.05,2.51-.13a32.33,32.33,0,0,0,9.75-2.64c3-1.31,5.87-2.7,8.61-4.13,8.35-4.43,16.47-9.21,24.13-14.23,2.25-1.47,4.46-3,6.65-4.56-.09.19-.18.37-.26.56a2.94,2.94,0,0,0-1.42,1.31,2.07,2.07,0,0,0,.1,2,90.85,90.85,0,0,0-5.87,20.41,99.83,99.83,0,0,0-1.22,10.79,42.67,42.67,0,0,0,1,12.5,33.12,33.12,0,0,0,5.24,11.56c2.65,3.74,6.69,6.42,12,8a27,27,0,0,0,7.68,1.23,16.25,16.25,0,0,0,7.9-1.89,23.13,23.13,0,0,0,9-8.6,36.9,36.9,0,0,0,4.38-11.35A50.83,50.83,0,0,0,608,382.74a41.3,41.3,0,0,0-3.73-12.52,32.33,32.33,0,0,0-5.08-7.56c5,.61,10.08,1.07,15.21,1.36a89.45,89.45,0,0,0,20.07-.94,168.92,168.92,0,0,0,35-10.09,106.57,106.57,0,0,0,29-17.8l.16-.16C699.66,333.84,699.49,332.51,698.12,331.47ZM591.4,368.59A27,27,0,0,1,597,385c0,1.33-.13,3.21-.4,5.74a27.43,27.43,0,0,1-1.74,7.06,19.36,19.36,0,0,1-3.56,5.9,5.66,5.66,0,0,1-4.51,2,8.52,8.52,0,0,1-5.53-1.71,13,13,0,0,1-3.76-4.84,26.45,26.45,0,0,1-1.93-6.48l-1-5.94a58.89,58.89,0,0,1,.4-15.19,82.7,82.7,0,0,1,3.24-13.18A33.56,33.56,0,0,1,591.4,368.59ZM595.6,323q1.78-2.81,3.51-5.46c2-3.16,4.14-6.22,6.22-9.14a246.9,246.9,0,0,1,22.4-28.07,345.9,345.9,0,0,1,26.78-26c1.12-.84,2.79-2.23,5.09-4.25a43.14,43.14,0,0,1,6.72-4.88,9.83,9.83,0,0,1,5-1.59c.17,0,1.08.65,1.31,3.45a23.15,23.15,0,0,1-3.07,12.6c-2.4,4.38-4.83,8.5-7.19,12.22A120.35,120.35,0,0,1,632,303.06,172.7,172.7,0,0,1,595.6,323ZM354.68,338.28c.33-.73.7-1.47,1.12-2.2a29.41,29.41,0,0,0,5.78,5.11,57.51,57.51,0,0,0,9.1,5.08l-.86.64a16.61,16.61,0,0,1-5.15,2.18,10.39,10.39,0,0,1-4.65.13,9.89,9.89,0,0,1-4-1.82,5.24,5.24,0,0,1-2-3.71A10.07,10.07,0,0,1,354.68,338.28Zm9.65-18.91c1.37-2.88,4.27-4.71,8.88-5.57a12.41,12.41,0,0,1,6.7.27,7.14,7.14,0,0,1,3.68,3.12,12.42,12.42,0,0,1,1.47,5.22,13,13,0,0,1-.94,5.7,41.13,41.13,0,0,1-3.12,6.55,44,44,0,0,1-3.58,5.21,43.37,43.37,0,0,1-7.62-4.09A16.08,16.08,0,0,1,364,329,11.79,11.79,0,0,1,364.33,319.37Z" transform="translate(-40.72 -37)"/><path class="cls-4" d="M585.51,415.77a28,28,0,0,1-8-1.27c-5.54-1.61-9.77-4.43-12.57-8.37a34.06,34.06,0,0,1-5.4-11.93,43.78,43.78,0,0,1-1.06-12.81,98.92,98.92,0,0,1,1.24-10.9,90.58,90.58,0,0,1,5.76-20.21,4.21,4.21,0,0,1-.16-.55c-1.1.76-2.16,1.47-3.18,2.14-7.68,5-15.83,9.84-24.22,14.28-2.74,1.43-5.66,2.83-8.68,4.16A33.12,33.12,0,0,1,519.19,373,24.24,24.24,0,0,1,509,371.94a16,16,0,0,1-8.5-7.1A13.23,13.23,0,0,1,498,354a74.93,74.93,0,0,1,2.69-9.45,61.43,61.43,0,0,1,2-6.62,63,63,0,0,0,1.94-6.37c.31-1,.64-2,1-3.29s.8-2.62,1.2-4a22,22,0,0,0,.73-3.68,2.79,2.79,0,0,0-.23-1.68,1.72,1.72,0,0,0-.17-.23,6.35,6.35,0,0,0-1.53.66,27.66,27.66,0,0,0-5.51,4.36l-.34.33a92,92,0,0,0-10.61,9.08,120,120,0,0,0-9.2,8.95,92,92,0,0,1-9.86,9.22A5.42,5.42,0,0,1,466,353a5.62,5.62,0,0,1-2.06-.43l-.63,0c-.22,0-.45,0-.7,0a5.13,5.13,0,0,1-3.87-2,11.17,11.17,0,0,1-3.55-7.86,82,82,0,0,1-23.65,8.1,145.3,145.3,0,0,1-41.27,1.55c-1.67-.2-3.45-.46-5.47-.78-1.25-.2-2.44-.42-3.54-.66a45.59,45.59,0,0,1-4.82,3.33,36.78,36.78,0,0,1-7.36,3.33,25.1,25.1,0,0,1-13.51.06,19.1,19.1,0,0,1-10.38-6.82,17.19,17.19,0,0,1-2.22-3.67,114.53,114.53,0,0,1-10.6,7.24,120.87,120.87,0,0,1-31.54,13.17,105.94,105.94,0,0,1-16.73,3.13,79,79,0,0,1-17.26,0,45.27,45.27,0,0,1-15.63-4.6,29.68,29.68,0,0,1-11.6-10.62c-.43-.73-.83-1.48-1.21-2.3a40,40,0,0,1-3.55,3c-13.43,10.17-38.49,16.5-65.38,16.5a259.92,259.92,0,0,1-38.15-3.12,4,4,0,0,1-2.71-1.62,3.76,3.76,0,0,1-.68-2.86,4,4,0,0,1,4.66-3.23c58,8.68,82.34-3.12,91.67-10.93a53.1,53.1,0,0,0,12.3-15.24,30.93,30.93,0,0,1,2.09-6,37.45,37.45,0,0,1,8.64-11.61,41,41,0,0,1,13.57-8.16,26.48,26.48,0,0,1,13-1.11c3.57.57,8.11,2.44,9.44,8.1,1,4.08-.07,8.06-3.07,11.84a42.79,42.79,0,0,1-9.28,8.69l-.63.33a5.27,5.27,0,0,1-5.1-.43,2.8,2.8,0,0,1-.62-4.05l.31-.47.53-.34a17.72,17.72,0,0,0,4.78-5.33c1.73-2.68,1.14-4,.55-4.7a6.15,6.15,0,0,0-1.52-1.61,39.65,39.65,0,0,0-5.22,2.83c-5.58,3.8-9.28,8.3-11,13.36a14.31,14.31,0,0,0-.36,8.23,18.45,18.45,0,0,0,3.92,7.46,23,23,0,0,0,7.47,5.56A30.21,30.21,0,0,0,274.8,361a76,76,0,0,0,21.11-1.28,88.68,88.68,0,0,0,20-6.62,110.16,110.16,0,0,0,17.78-10.5,96.76,96.76,0,0,0,12.58-10.87,47.5,47.5,0,0,1,3.82-4.91A17.85,17.85,0,0,1,358.63,309a33.89,33.89,0,0,1,11.5-4.71,29.38,29.38,0,0,1,13.16.17,20.54,20.54,0,0,1,11,6.58,14.26,14.26,0,0,1,3.33,13.46,42,42,0,0,1-5.12,12.08l-2.36,4.12c-.29.5-.61,1-1,1.51a75.41,75.41,0,0,0,9.66,1.2,121.72,121.72,0,0,0,13.42.15,210.48,210.48,0,0,0,26.08-3.82,54.63,54.63,0,0,0,18.95-7.92,43.52,43.52,0,0,1,2.15-5.91,20.64,20.64,0,0,1,6.58-8c1.63-1.52,4.37-1.94,7.26-1.05,3.07,1,4.59,2.88,4.07,5.14a21.58,21.58,0,0,1-1.82,6.39q1.76-1.8,3.6-3.57a119,119,0,0,1,17.35-13.72,41,41,0,0,1,7.91-3.4,14.89,14.89,0,0,1,10.28.41c5,2.05,6.25,5.19,6.39,7.47a41.33,41.33,0,0,1-.22,7.14,106.74,106.74,0,0,1-2.26,11.85q-1.43,5.58-3,11.6c-.84,2.32-1.65,4.74-2.44,7.29a12.21,12.21,0,0,0-.35,6.39c.66,3,2.67,3.46,4.75,3.55a21.05,21.05,0,0,0,10.69-2.3,224.09,224.09,0,0,0,25.17-14.79c7.11-4.87,14.23-10,21.15-15.31,2.27-4.36,4.55-8.52,6.79-12.36A234.08,234.08,0,0,1,599.47,293c6.58-8.13,13.75-16.13,21.3-23.78,4.52-4.58,9.36-9.25,14.38-13.91a193.05,193.05,0,0,1,15.74-13.13,62.21,62.21,0,0,1,6.16-4,35.88,35.88,0,0,1,7.84-3.33,21.37,21.37,0,0,1,8.79-.74,12.15,12.15,0,0,1,8.08,4.63,11.26,11.26,0,0,1,2.94,7.59,27.19,27.19,0,0,1-1.09,7.52,46.24,46.24,0,0,1-2.75,7.12,52.85,52.85,0,0,1-3.39,6c-8.41,14.17-20.22,26.91-35.08,37.8a177.62,177.62,0,0,1-49.89,25.19c-1.93,3.45-3.83,7-5.66,10.54-1.59,3.08-3.07,6.24-4.41,9.42a103.69,103.69,0,0,0,26.76,5.26,130.92,130.92,0,0,0,30.79-1.6A121.47,121.47,0,0,0,668.64,345a92.31,92.31,0,0,0,23.14-14.37l.57-.38a6.07,6.07,0,0,1,6.4.39h0a3.63,3.63,0,0,1,1.58,2.52,3.41,3.41,0,0,1-1,2.59l-.2.2a107.51,107.51,0,0,1-29.33,18,169.38,169.38,0,0,1-35.24,10.15,90,90,0,0,1-20.32,1c-4.24-.24-8.48-.6-12.64-1.06a33,33,0,0,1,3.52,5.73A42.23,42.23,0,0,1,609,382.61a51,51,0,0,1-1.23,10.48,38.2,38.2,0,0,1-4.5,11.67,24.16,24.16,0,0,1-9.36,9A17.37,17.37,0,0,1,585.51,415.77Zm-14.67-72.51-2.07,4.49-.33.17a1.91,1.91,0,0,0-1,.84,1,1,0,0,0,.09,1l.24.44-.19.46a89.66,89.66,0,0,0-5.81,20.18,98,98,0,0,0-1.21,10.69,41.66,41.66,0,0,0,1,12.19,32,32,0,0,0,5.07,11.18c2.51,3.54,6.36,6.09,11.44,7.56,5.87,1.75,10.88,1.56,14.79-.57a22.11,22.11,0,0,0,8.54-8.21,36.22,36.22,0,0,0,4.25-11,49.55,49.55,0,0,0,1.19-9.91,40.11,40.11,0,0,0-3.62-12.08,31.65,31.65,0,0,0-4.91-7.31l-1.88-2.1,2.8.34c5,.61,10.05,1.07,15.14,1.36a88,88,0,0,0,19.84-.93,167.24,167.24,0,0,0,34.79-10,105.58,105.58,0,0,0,28.69-17.62l.11-.11a1.26,1.26,0,0,0,.37-.92,1.67,1.67,0,0,0-.74-1,3.92,3.92,0,0,0-4.08-.25l-.35.23a93.71,93.71,0,0,1-23.55,14.62,123.55,123.55,0,0,1-29.16,8.74,133,133,0,0,1-31.29,1.62,105.39,105.39,0,0,1-28.39-5.75l-1.06-.37.43-1c1.48-3.59,3.14-7.16,4.92-10.62,1.9-3.69,3.89-7.38,5.91-11l.2-.36.39-.13a175.34,175.34,0,0,0,49.68-25c14.63-10.72,26.25-23.24,34.54-37.21A51.49,51.49,0,0,0,679,260a43.89,43.89,0,0,0,2.62-6.78,24.89,24.89,0,0,0,1-6.93,9.1,9.1,0,0,0-2.44-6.22,10.11,10.11,0,0,0-6.74-3.89,19.42,19.42,0,0,0-7.92.66,34,34,0,0,0-7.37,3.15,56.41,56.41,0,0,0-6,3.83,192.07,192.07,0,0,0-15.57,13c-5,4.64-9.81,9.3-14.31,13.85-7.5,7.6-14.62,15.55-21.16,23.63a230.9,230.9,0,0,0-18,25.45c-2.25,3.86-4.56,8.06-6.85,12.47l-.11.2-.19.15c-7,5.37-14.22,10.59-21.42,15.52A225.37,225.37,0,0,1,529.18,363a23.25,23.25,0,0,1-11.74,2.52c-1.39-.06-5.63-.24-6.74-5.2a14.48,14.48,0,0,1,.4-7.49c.8-2.58,1.63-5,2.45-7.3,1-3.92,2-7.77,3-11.48a105.23,105.23,0,0,0,2.22-11.59,38.91,38.91,0,0,0,.2-6.76c-.18-3-2.86-4.72-5.08-5.62a12.77,12.77,0,0,0-8.83-.36,39.26,39.26,0,0,0-7.45,3.2,116.49,116.49,0,0,0-17,13.44c-2.76,2.63-5.37,5.37-7.74,8.12l-3.37,3.91,1.55-4.92a30.33,30.33,0,0,1,2-4.8,20,20,0,0,0,2.23-7c.36-1.59-1.48-2.4-2.61-2.75-2.15-.67-4.12-.42-5.27.65a18.56,18.56,0,0,0-6,7.25,41,41,0,0,0-2.15,6l-.1.38-.33.22a56.74,56.74,0,0,1-20,8.46,214.67,214.67,0,0,1-26.39,3.86,126.54,126.54,0,0,1-13.69-.15A78.79,78.79,0,0,1,387.12,344l-1.7-.36,1.09-1.35a18.26,18.26,0,0,0,1.8-2.61l2.4-4.16A40.45,40.45,0,0,0,395.58,324a12.2,12.2,0,0,0-2.88-11.54,18.43,18.43,0,0,0-9.91-5.91,27.5,27.5,0,0,0-12.21-.16,31.8,31.8,0,0,0-10.79,4.42,15.75,15.75,0,0,0-6.48,7.45,15.24,15.24,0,0,0-1,8.67l.12.54-.38.41a43.6,43.6,0,0,0-4,5.15l-.11.14A98.62,98.62,0,0,1,335,344.34a113,113,0,0,1-18.12,10.71,90.19,90.19,0,0,1-20.54,6.78,78.31,78.31,0,0,1-21.71,1.32,32.29,32.29,0,0,1-11.43-3,24.75,24.75,0,0,1-8.15-6.09,20.62,20.62,0,0,1-4.37-8.31,16.36,16.36,0,0,1,.41-9.43c1.84-5.51,5.81-10.38,11.81-14.46a42.89,42.89,0,0,1,5.68-3.08,1.66,1.66,0,0,1,1-.16c.25,0,1.37.37,2.91,2.5,1.52,1.89,1.38,4.31-.46,7.15a19.84,19.84,0,0,1-5.42,6l-.21.19c-.29.44-.38.81.12,1.18a3.13,3.13,0,0,0,3,.19l.41-.21a40.87,40.87,0,0,0,8.7-8.19c2.57-3.24,3.47-6.62,2.67-10-.86-3.62-3.45-5.81-7.71-6.49a24.53,24.53,0,0,0-11.95,1,39.1,39.1,0,0,0-12.84,7.73,35.15,35.15,0,0,0-8.15,10.95,28.1,28.1,0,0,0-2,5.77l-.11.28a55.33,55.33,0,0,1-12.87,16c-22.36,18.74-68.09,15.19-93.35,11.41a1.92,1.92,0,0,0-2.25,1.48,1.72,1.72,0,0,0,.3,1.26,2,2,0,0,0,1.31.77,257.23,257.23,0,0,0,37.84,3.1c26.45,0,51-6.17,64.11-16.08a37.28,37.28,0,0,0,4.42-3.85l1.13-1.15.61,1.5a25.38,25.38,0,0,0,1.68,3.42,27.55,27.55,0,0,0,10.76,9.85,43.14,43.14,0,0,0,14.91,4.38,75.9,75.9,0,0,0,16.78,0,102.91,102.91,0,0,0,16.4-3.06,119.13,119.13,0,0,0,31-12.93,112.2,112.2,0,0,0,11.53-8l1.22-1,.45,1.49a14.05,14.05,0,0,0,2.39,4.42,17,17,0,0,0,9.27,6.06,23,23,0,0,0,12.33,0,34.93,34.93,0,0,0,6.88-3.12,44.1,44.1,0,0,0,5-3.48l.4-.32.5.11c1.2.27,2.52.51,3.91.74,2,.32,3.75.57,5.37.77a143.53,143.53,0,0,0,40.65-1.53A79,79,0,0,0,455.92,340l1.81-1L457.5,341c-.06.49-.11,1-.14,1.43-.13,2.33.88,4.61,3,6.78a3.1,3.1,0,0,0,2.37,1.25h.47l1.2-.07.25.12a3.14,3.14,0,0,0,1.4.34,3.5,3.5,0,0,0,2.63-1.14,92.35,92.35,0,0,0,9.74-9.09,120.6,120.6,0,0,1,9.3-9.06,93.83,93.83,0,0,1,10.72-9.18l.19-.18A23.59,23.59,0,0,1,501.1,320a25.85,25.85,0,0,1,3.48-2.46,7.17,7.17,0,0,1,2.8-1h0c.83,0,1.48.85,1.73,1.22a4.7,4.7,0,0,1,.57,3.08,24.15,24.15,0,0,1-.8,4.05c-.4,1.4-.81,2.75-1.21,4.05s-.74,2.35-1,3.24a61.41,61.41,0,0,1-2,6.52,60.53,60.53,0,0,0-2,6.5,72.72,72.72,0,0,0-2.66,9.29,11.29,11.29,0,0,0,2.2,9.18,14.09,14.09,0,0,0,7.41,6.27,22.21,22.21,0,0,0,9.34,1,31.11,31.11,0,0,0,9.42-2.55c3-1.31,5.85-2.69,8.55-4.1,8.32-4.41,16.41-9.18,24-14.18,2-1.32,4.18-2.8,6.61-4.53Zm15.93,63.45a9.5,9.5,0,0,1-6.19-1.95,13.74,13.74,0,0,1-4.07-5.23,27.8,27.8,0,0,1-2-6.73l-1-5.94a60.17,60.17,0,0,1,.4-15.54A82.89,82.89,0,0,1,577.19,358l.37-1.13,1.08.5A34.68,34.68,0,0,1,592.25,368h0A28,28,0,0,1,598,385c0,1.38-.13,3.29-.4,5.85a28.48,28.48,0,0,1-1.81,7.34,20.73,20.73,0,0,1-3.75,6.22A6.78,6.78,0,0,1,586.77,406.71Zm-7.94-46.92A81.77,81.77,0,0,0,576,371.65a57.71,57.71,0,0,0-.38,14.92l1,5.87a25.83,25.83,0,0,0,1.86,6.22,11.79,11.79,0,0,0,3.46,4.45,7.5,7.5,0,0,0,4.86,1.48,4.6,4.6,0,0,0,3.72-1.61,18.16,18.16,0,0,0,3.36-5.57,26.55,26.55,0,0,0,1.68-6.8c.26-2.48.39-4.32.39-5.62a26,26,0,0,0-5.37-15.77h0A32.24,32.24,0,0,0,578.83,359.79Zm-216.89-9.3a10.19,10.19,0,0,1-2.15-.23,11.07,11.07,0,0,1-4.44-2,6.25,6.25,0,0,1-2.43-4.42,11.16,11.16,0,0,1,.79-6h0c.34-.76.73-1.53,1.17-2.3l.75-1.31,1,1.15a28.16,28.16,0,0,0,5.57,4.92,56.28,56.28,0,0,0,8.94,5l1.65.74-2.31,1.72a17.66,17.66,0,0,1-5.55,2.36A13.32,13.32,0,0,1,361.94,350.49ZM356,337.91c-.14.27-.26.54-.38.8h0a9,9,0,0,0-.63,4.85,4.21,4.21,0,0,0,1.6,3,9,9,0,0,0,3.62,1.64,9.39,9.39,0,0,0,4.19-.14,15.47,15.47,0,0,0,4.11-1.61,58.88,58.88,0,0,1-7.57-4.38A31.13,31.13,0,0,1,356,337.91Zm21.72,3.25-.74-.31a44.86,44.86,0,0,1-7.81-4.19,17.06,17.06,0,0,1-6.2-7.23,12.82,12.82,0,0,1,.37-10.51h0c1.52-3.22,4.67-5.23,9.64-6.17,3.06-.52,5.52-.41,7.31.34a8.2,8.2,0,0,1,4.2,3.58,13.46,13.46,0,0,1,1.59,5.67,13.89,13.89,0,0,1-1,6.17,41.51,41.51,0,0,1-3.19,6.69,45.58,45.58,0,0,1-3.66,5.33Zm-12.46-21.33h0a10.79,10.79,0,0,0-.33,8.8,15,15,0,0,0,5.43,6.27,42.35,42.35,0,0,0,6.7,3.67,44.28,44.28,0,0,0,3-4.44,41.13,41.13,0,0,0,3-6.38,12,12,0,0,0,.88-5.28,11.44,11.44,0,0,0-1.34-4.77,6.11,6.11,0,0,0-3.16-2.65,11.49,11.49,0,0,0-6.11-.21C369.15,315.64,366.5,317.27,365.29,319.83Zm227.63,5.44,1.78-2.8c1.2-1.87,2.37-3.7,3.52-5.47,2-3.15,4.14-6.24,6.25-9.18A249.33,249.33,0,0,1,627,279.65a346.25,346.25,0,0,1,26.86-26c1.17-.87,2.86-2.29,5.09-4.25a43.88,43.88,0,0,1,6.89-5,10.91,10.91,0,0,1,5.59-1.73c.92,0,2.06,1.24,2.33,4.42a24.14,24.14,0,0,1-3.2,13.2c-2.41,4.4-4.84,8.53-7.22,12.28a121.49,121.49,0,0,1-30.64,31.41A174.25,174.25,0,0,1,596,324Zm78-80.53a9.65,9.65,0,0,0-4.11,1.45,42.88,42.88,0,0,0-6.55,4.75c-2.3,2-4,3.44-5.15,4.31a345.78,345.78,0,0,0-26.64,25.84,245.86,245.86,0,0,0-22.3,28c-2.1,2.93-4.18,6-6.21,9.11l-1.68,2.61A170,170,0,0,0,631.4,302.2a119.25,119.25,0,0,0,30.11-30.83c2.34-3.7,4.75-7.79,7.14-12.15a22.11,22.11,0,0,0,2.94-12A5.14,5.14,0,0,0,671,244.74Z" transform="translate(-40.72 -37)"/><path class="cls-5" d="M251,429.57q-4-4.19-4.06-11.57,0-8,3.92-12.34t11.78-4.38a27.65,27.65,0,0,1,9.25,1.51v4.65a24.23,24.23,0,0,0-8.86-1.61q-5.72,0-8.21,3T252.3,418q0,5.58,2.67,8.42t8.14,2.83a24.53,24.53,0,0,0,8.81-1.51v4.69a30.81,30.81,0,0,1-9.25,1.32Q255,433.75,251,429.57Z" transform="translate(-40.72 -37)"/><path class="cls-5" d="M262.67,434c-5.12,0-9.11-1.43-11.84-4.25h0c-2.74-2.81-4.12-6.76-4.12-11.72,0-5.34,1.33-9.54,4-12.49s6.65-4.45,11.94-4.45a28.12,28.12,0,0,1,9.32,1.53l.14.05v5.11l-.29-.11A24.22,24.22,0,0,0,263,406c-3.73,0-6.43,1-8,3s-2.44,5-2.44,9c0,3.65.88,6.43,2.61,8.27s4.41,2.77,8,2.77a24.49,24.49,0,0,0,8.73-1.5l.29-.12v5.17l-.15.05A31.16,31.16,0,0,1,262.67,434Zm-11.53-4.55c2.65,2.73,6.53,4.12,11.53,4.12a30.74,30.74,0,0,0,9-1.27v-4.22a25,25,0,0,1-8.59,1.42c-3.69,0-6.49-1-8.3-2.91s-2.72-4.8-2.72-8.56c0-4.1.85-7.23,2.54-9.28s4.52-3.11,8.38-3.11a24.54,24.54,0,0,1,8.64,1.52V403a27.44,27.44,0,0,0-9-1.46c-5.16,0-9.07,1.45-11.62,4.31s-3.86,7-3.86,12.2c0,4.85,1.34,8.69,4,11.42Z" transform="translate(-40.72 -37)"/><path class="cls-5" d="M287.4,429.82q-3.7-3.94-3.7-12.21,0-8.5,3.67-12.42c2.45-2.61,6.19-3.91,11.25-3.91s8.8,1.3,11.25,3.91,3.67,6.75,3.67,12.42q0,8.26-3.7,12.21t-11.22,3.93Q291.09,433.75,287.4,429.82Zm18.51-3.31q2.29-2.73,2.3-8.9,0-6.41-2.28-9.09c-1.52-1.8-3.95-2.69-7.31-2.69s-5.75.89-7.26,2.69-2.28,4.82-2.28,9.09q0,6.12,2.3,8.88c1.53,1.84,3.95,2.76,7.24,2.76S304.37,428.34,305.91,426.51Z" transform="translate(-40.72 -37)"/><path class="cls-5" d="M298.62,434c-5.06,0-8.89-1.35-11.38-4h0c-2.49-2.65-3.75-6.8-3.75-12.35s1.25-9.93,3.72-12.57,6.32-4,11.41-4,8.93,1.34,11.4,4,3.73,6.87,3.73,12.57-1.26,9.7-3.75,12.35S303.68,434,298.62,434Zm0-32.48c-5,0-8.7,1.3-11.09,3.85s-3.61,6.68-3.61,12.27c0,5.43,1.22,9.49,3.63,12.06h0c2.41,2.57,6.13,3.87,11.07,3.87s8.66-1.3,11.07-3.87,3.63-6.63,3.63-12.06c0-5.59-1.21-9.72-3.61-12.27S303.59,401.49,298.62,401.49Zm0,28c-3.35,0-5.84-1-7.4-2.84s-2.35-4.91-2.35-9c0-4.3.78-7.41,2.32-9.23s4.05-2.77,7.43-2.77,5.92.93,7.48,2.77,2.32,4.93,2.32,9.23c0,4.14-.79,7.19-2.35,9h0C304.5,428.52,302,429.47,298.62,429.47Zm0-23.43c-3.24,0-5.63.88-7.1,2.62s-2.22,4.75-2.22,8.95c0,4,.75,6.95,2.25,8.74s3.86,2.69,7.07,2.69,5.64-.9,7.12-2.66h0c1.49-1.78,2.25-4.73,2.25-8.77,0-4.2-.75-7.21-2.22-8.95S301.89,406,298.62,406Z" transform="translate(-40.72 -37)"/><path class="cls-5" d="M328.55,401.77h5.33v27.39H350v4.1H328.55Z" transform="translate(-40.72 -37)"/><path class="cls-5" d="M350.24,433.48h-21.9V401.55h5.76v27.39h16.14Zm-21.47-.43h21v-3.68H333.67V402h-4.9Z" transform="translate(-40.72 -37)"/><path class="cls-5" d="M363.54,429.82q-3.69-3.94-3.69-12.21,0-8.5,3.67-12.42t11.25-3.91q7.58,0,11.25,3.91t3.67,12.42q0,8.26-3.7,12.21t-11.22,3.93Q367.24,433.75,363.54,429.82Zm18.52-3.31q2.29-2.73,2.29-8.9c0-4.27-.75-7.3-2.27-9.09s-3.95-2.69-7.31-2.69-5.75.89-7.26,2.69-2.28,4.82-2.28,9.09q0,6.12,2.3,8.88c1.53,1.84,4,2.76,7.24,2.76S380.52,428.34,382.06,426.51Z" transform="translate(-40.72 -37)"/><path class="cls-5" d="M374.77,434c-5.06,0-8.89-1.35-11.38-4h0c-2.49-2.65-3.75-6.8-3.75-12.35s1.25-9.93,3.72-12.57,6.32-4,11.41-4,8.93,1.34,11.4,4,3.73,6.87,3.73,12.57-1.26,9.7-3.75,12.35S379.83,434,374.77,434Zm0-32.48c-5,0-8.7,1.3-11.09,3.85s-3.61,6.68-3.61,12.27c0,5.43,1.22,9.49,3.63,12.06h0c2.41,2.57,6.13,3.87,11.07,3.87s8.66-1.3,11.06-3.87,3.64-6.63,3.64-12.06c0-5.59-1.21-9.72-3.61-12.27S379.74,401.49,374.77,401.49Zm0,28c-3.35,0-5.84-1-7.41-2.84s-2.34-4.91-2.34-9c0-4.3.78-7.41,2.32-9.23s4.05-2.77,7.43-2.77,5.92.93,7.47,2.77,2.33,4.93,2.33,9.23c0,4.14-.79,7.19-2.35,9h0C380.65,428.52,378.14,429.47,374.77,429.47Zm0-23.43c-3.25,0-5.63.88-7.1,2.62s-2.22,4.75-2.22,8.95c0,4,.75,6.95,2.25,8.74s3.86,2.69,7.07,2.69,5.64-.9,7.12-2.66h0c1.49-1.78,2.25-4.73,2.25-8.77,0-4.2-.75-7.21-2.22-8.95S378,406,374.77,406Z" transform="translate(-40.72 -37)"/><path class="cls-5" d="M403,401.77h5.48l10,20.39,9.93-20.39h5.48v31.49h-5.28V410.42l-8.51,17.42h-3.23l-8.56-17.42v22.84H403Z" transform="translate(-40.72 -37)"/><path class="cls-5" d="M434.06,433.48h-5.71V411.35l-8.16,16.7H416.7l-.06-.12-8.15-16.58v22.13h-5.72V401.55h5.83l.06.12,9.78,20,9.8-20.12h5.82Zm-5.28-.43h4.85V402h-5.12l-10.07,20.67L408.33,402H403.2v31.07h4.86V409.5l8.9,18.12h3l8.86-18.13Z" transform="translate(-40.72 -37)"/><path class="cls-5" d="M449.79,401.77h15.26c3.07,0,5.36.72,6.9,2.17a8.19,8.19,0,0,1,2.3,6.24,8.33,8.33,0,0,1-1,4.23,6.76,6.76,0,0,1-2.76,2.67,6.77,6.77,0,0,1,3.69,2.37,7.55,7.55,0,0,1,1.3,4.72c0,3-.83,5.3-2.47,6.82s-4.07,2.27-7.26,2.27H449.79Zm14.53,13.45c3.32,0,5-1.54,5-4.6a4.83,4.83,0,0,0-1.23-3.69c-.81-.77-2.26-1.15-4.35-1.15h-8.61v9.44Zm.29,14.13a6,6,0,0,0,4.18-1.22c.87-.82,1.3-2.2,1.3-4.16a4.63,4.63,0,0,0-1.35-3.67c-.89-.78-2.45-1.17-4.67-1.17h-8.95v10.22Z" transform="translate(-40.72 -37)"/><path class="cls-5" d="M465.74,433.48H449.58V401.55h15.47c3.11,0,5.48.75,7.05,2.24a8.41,8.41,0,0,1,2.36,6.39,8.55,8.55,0,0,1-1,4.34A7,7,0,0,1,471,417a6.84,6.84,0,0,1,3.33,2.3,7.83,7.83,0,0,1,1.34,4.85c0,3.08-.85,5.43-2.53,7S469,433.48,465.74,433.48ZM450,433.05h15.73c3.12,0,5.52-.75,7.11-2.22s2.4-3.71,2.4-6.66a7.41,7.41,0,0,0-1.25-4.59,6.67,6.67,0,0,0-3.58-2.3l-.51-.15.47-.25a6.59,6.59,0,0,0,2.68-2.58,8.21,8.21,0,0,0,1-4.12,8,8,0,0,0-2.23-6.08c-1.49-1.41-3.76-2.12-6.75-2.12H450Zm14.6-3.48h-9.7V418.91h9.16c2.26,0,3.88.42,4.82,1.23A4.84,4.84,0,0,1,470.3,424c0,2-.45,3.46-1.36,4.31A6.14,6.14,0,0,1,464.61,429.57Zm-9.27-.43h9.27a5.82,5.82,0,0,0,4-1.17c.81-.77,1.22-2.11,1.22-4a4.43,4.43,0,0,0-1.27-3.51c-.85-.74-2.37-1.12-4.53-1.12h-8.73Zm9-13.71h-9.41v-9.87h8.82c2.13,0,3.65.41,4.5,1.21a5.08,5.08,0,0,1,1.29,3.85C469.52,413.81,467.77,415.43,464.32,415.43Zm-9-.43h9c3.21,0,4.77-1.43,4.77-4.38a4.72,4.72,0,0,0-1.15-3.54c-.77-.72-2.19-1.09-4.21-1.09h-8.39Z" transform="translate(-40.72 -37)"/><path class="cls-5" d="M490.44,401.77h5.33v31.49h-5.33Z" transform="translate(-40.72 -37)"/><path class="cls-5" d="M496,433.48h-5.76V401.55H496Zm-5.33-.43h4.9V402h-4.9Z" transform="translate(-40.72 -37)"/><path class="cls-5" d="M522.81,401.77h6l11.93,31.49h-5.47l-3.13-8.11H519.44l-3.13,8.11h-5.53ZM531.22,421l-5.47-14.43L520.27,421Z" transform="translate(-40.72 -37)"/><path class="cls-5" d="M541,433.48h-5.93L532,425.36H519.59l-3.13,8.12h-6l.11-.29,12.08-31.64h6.27l.05.14Zm-5.64-.43h5L528.63,402H523l-11.87,31.07h5.07l3.13-8.12h13Zm-3.84-11.8H520L525.75,406Zm-11-.43h10.33l-5.16-13.61Z" transform="translate(-40.72 -37)"/></svg>